<svg xmlns="http://www.w3.org/2000/svg" width="201" height="42" viewBox="0 0 201 42" fill="none"><path fill-rule="evenodd" clip-rule="evenodd" d="M20.6583 34.3695L27.5442 41.2554H13.7724L20.6583 34.3695Z" fill="#0072A7"></path><path fill-rule="evenodd" clip-rule="evenodd" d="M13.7959 27.4713L0 41.2675H13.7959V27.4713Z" fill="#00313D"></path><path fill-rule="evenodd" clip-rule="evenodd" d="M0.000488281 41.2679L13.7965 27.4719H0.000488281V41.2679Z" fill="#005B79"></path><path fill-rule="evenodd" clip-rule="evenodd" d="M0.000488281 13.7616L13.7965 27.5575H0.000488281V13.7616Z" fill="#00313D"></path><path fill-rule="evenodd" clip-rule="evenodd" d="M13.7959 27.5577L0 13.7618H13.7959V27.5577Z" fill="#005B79"></path><path fill-rule="evenodd" clip-rule="evenodd" d="M27.5323 27.4713L41.3283 41.2675H27.5323V27.4713Z" fill="#005B79"></path><path fill-rule="evenodd" clip-rule="evenodd" d="M41.3277 41.2679L27.5318 27.4719H41.3277V41.2679Z" fill="#00313D"></path><path fill-rule="evenodd" clip-rule="evenodd" d="M41.3277 13.7616L27.5318 27.5575H41.3277V13.7616Z" fill="#005B79"></path><path fill-rule="evenodd" clip-rule="evenodd" d="M27.5323 27.5577L41.3283 13.7618H27.5323V27.5577Z" fill="#00313D"></path><path fill-rule="evenodd" clip-rule="evenodd" d="M20.6178 6.92692L13.7316 0.0410156H27.5037L20.6178 6.92692Z" fill="#0080AF"></path><path fill-rule="evenodd" clip-rule="evenodd" d="M20.6504 6.92692L13.7644 0.0410156H20.6504V6.92692Z" fill="#38C0DC"></path><path fill-rule="evenodd" clip-rule="evenodd" d="M6.88621 6.8862L0.000305176 13.7721V0L6.88621 6.8862Z" fill="#38C0DC"></path><path fill-rule="evenodd" clip-rule="evenodd" d="M20.6583 6.88562H6.89721L0.000305176 13.7616L13.7613 13.7605L20.6583 6.88562Z" fill="#0072A7"></path><path fill-rule="evenodd" clip-rule="evenodd" d="M20.6583 6.88558H6.89721L0.000305176 0.010376H13.7613L20.6583 6.88558Z" fill="#9AD7E7"></path><path fill-rule="evenodd" clip-rule="evenodd" d="M20.6583 6.85413L13.7832 13.7514L13.7574 41.2554L20.6322 34.3581L20.6583 6.85413Z" fill="#38C0DC"></path><path fill-rule="evenodd" clip-rule="evenodd" d="M34.4302 6.8862L41.3161 13.7721V0L34.4302 6.8862Z" fill="#0297CE"></path><path fill-rule="evenodd" clip-rule="evenodd" d="M20.6583 6.88562H34.4194L41.3164 13.7616L27.5553 13.7605L20.6583 6.88562Z" fill="#0072A7"></path><path fill-rule="evenodd" clip-rule="evenodd" d="M20.6583 6.88558H34.4194L41.3164 0.010376H27.5553L20.6583 6.88558Z" fill="#9AD7E7"></path><path fill-rule="evenodd" clip-rule="evenodd" d="M20.6583 6.85413L27.5332 13.7514L27.5343 27.4694L27.5593 27.4952V41.2554L20.6183 34.3692L20.6583 6.85413Z" fill="#0297CE"></path><path fill-rule="evenodd" clip-rule="evenodd" d="M59 21V24.328H56.0405V34H50.9587V24.328H48V21H59Z" fill="#00313D"></path><path fill-rule="evenodd" clip-rule="evenodd" d="M65.5543 24.2742C65.2962 24.5143 64.9139 25.0191 64.8638 25.8136H70.162C70.1089 25.0191 69.7268 24.5143 69.4712 24.2742C68.8566 23.6719 68.138 23.5767 67.5004 23.5767C66.885 23.5767 66.1692 23.6484 65.5543 24.2742ZM74.896 29.4258C74.6154 30.7015 73.8738 31.6891 73.105 32.3149C71.1871 33.9286 68.3703 34 67.5004 34C64.7848 34 63.148 33.1576 62.1991 32.3866C61.0731 31.4725 60 29.9567 60 27.4987C60 26.1044 60.3315 24.1528 62.1991 22.613C63.9169 21.2165 65.964 21 67.5004 21C68.8566 21 71.2372 21.2166 72.978 22.8293C73.975 23.7433 75 25.357 75 27.9815V28.2219H64.8638C64.8357 28.8242 64.9647 29.5952 65.2454 30.1232C65.7846 31.1108 66.6806 31.3038 67.4723 31.3038C68.3453 31.3038 68.9829 31.0637 69.4712 30.485C69.8027 30.0754 69.9067 29.7139 69.929 29.4258H74.896Z" fill="#00313D"></path><path fill-rule="evenodd" clip-rule="evenodd" d="M80.3777 21L82.8149 25.7059H83.1831L85.6223 21H90.8678L87.3289 27.0836L91 34H85.4644L83.1831 28.6697H82.8149L80.5358 34H75L78.6711 27.0836L75.1322 21H80.3777Z" fill="#00313D"></path><path fill-rule="evenodd" clip-rule="evenodd" d="M97.1625 21V25.5746H100.835V21H106V34H100.835V28.8774H97.1625V34H92V21H97.1625Z" fill="#00313D"></path><path fill-rule="evenodd" clip-rule="evenodd" d="M113.852 29.643C114.415 30.6306 115.384 30.8236 116.002 30.8236C116.617 30.8236 117.583 30.6306 118.148 29.643C118.496 29.0415 118.578 28.2704 118.578 27.4278C118.578 26.6116 118.496 25.8643 118.148 25.2382C117.583 24.2507 116.617 24.0577 116.002 24.0577C115.384 24.0577 114.415 24.2507 113.852 25.2382C113.504 25.8643 113.422 26.6116 113.422 27.4278C113.422 28.2704 113.504 29.0415 113.852 29.643ZM110.442 22.6372C111.705 21.6996 113.475 21 116.002 21C118.523 21 120.295 21.6996 121.559 22.6372C122.872 23.6248 124 25.1883 124 27.5013C124 29.8125 122.872 31.3781 121.559 32.3656C120.295 33.3032 118.523 34 116.002 34C113.475 34 111.705 33.3032 110.442 32.3656C109.128 31.3781 108 29.8125 108 27.5013C108 25.1883 109.128 23.6248 110.442 22.6372Z" fill="#00313D"></path><path fill-rule="evenodd" clip-rule="evenodd" d="M136.185 21L140 34H134.813L132.702 24.2486H132.295L130.187 34H125L128.812 21H136.185Z" fill="#00313D"></path><path fill-rule="evenodd" clip-rule="evenodd" d="M146.486 29.643C147.014 30.6306 147.922 30.8236 148.502 30.8236C149.078 30.8236 149.984 30.6306 150.515 29.643C150.84 29.0415 150.917 28.2704 150.917 27.4278C150.917 26.6116 150.84 25.8643 150.515 25.2382C149.984 24.2507 149.078 24.0577 148.502 24.0577C147.922 24.0577 147.014 24.2507 146.486 25.2382C146.16 25.8643 146.083 26.6116 146.083 27.4278C146.083 28.2704 146.16 29.0415 146.486 29.643ZM143.289 22.6372C144.473 21.6996 146.133 21 148.502 21C150.865 21 152.527 21.6996 153.711 22.6372C154.943 23.6248 156 25.1883 156 27.5013C156 29.8125 154.943 31.3781 153.711 32.3656C152.527 33.3032 150.865 34 148.502 34C146.133 34 144.473 33.3032 143.289 32.3656C142.058 31.3781 141 29.8125 141 27.5013C141 25.1883 142.058 23.6248 143.289 22.6372Z" fill="#00313D"></path><path fill-rule="evenodd" clip-rule="evenodd" d="M159.405 21.814C160.091 21.4553 161.269 21.0281 163.354 21.0021C164.653 20.9787 166.369 21.1459 167.547 21.7439C169.263 22.6266 169.508 24.0364 169.532 24.7286C169.581 25.9469 168.994 26.8561 168.257 27.4042C167.62 27.8836 166.713 28.1694 165.194 28.5758C164.064 28.8611 163.354 28.9815 162.789 29.1728C162.275 29.3643 161.907 29.5792 161.907 30.2005C161.907 30.4622 161.98 30.8209 162.348 31.0599C162.592 31.2273 162.937 31.2748 163.354 31.2748C163.795 31.2748 164.236 31.2039 164.604 30.8686C164.873 30.6301 165.094 30.2239 165.094 29.7466V29.4588H170C169.9 30.3677 169.532 31.9195 167.964 32.9463C166.638 33.8085 164.873 34 163.354 34C160.925 34 159.773 33.5702 159.281 33.3527C157.617 32.6138 157.052 31.4422 157.003 30.2473C156.952 28.8403 157.59 27.8602 158.94 27.1652C159.478 26.9036 160.336 26.5916 162.372 26.1384C163.475 25.9002 164.039 25.7556 164.357 25.5171C164.505 25.3995 164.752 25.1109 164.752 24.6578C164.752 24.2513 164.529 24.0131 164.357 23.8692C164.039 23.6303 163.598 23.6066 163.354 23.6066C162.985 23.6066 162.617 23.6777 162.299 23.9656C161.883 24.3458 161.858 24.825 161.858 25.1605V25.4463H157.1C157.148 24.0131 157.861 22.6266 159.405 21.814V21.814Z" fill="#00313D"></path><path fill-rule="evenodd" clip-rule="evenodd" d="M177.197 21V28.0796C177.197 28.7101 177.197 29.3624 177.51 29.843C177.667 30.0943 178.034 30.4728 178.765 30.4982C179.261 30.5229 180.046 30.3712 180.541 29.5389C180.88 28.9614 180.934 28.3309 180.934 27.6766V21H186V33.5957H181.14L180.934 31.9573C180.802 32.1859 180.464 32.6646 179.888 33.0932C179.183 33.6204 178.138 33.9743 176.883 33.9997C174.43 34.0243 173.278 32.7141 172.965 32.2863C172 31.0008 172 29.3123 172 28.0796V21H177.197Z" fill="#00313D"></path><path fill-rule="evenodd" clip-rule="evenodd" d="M194.586 23.9121C194.133 23.9121 193.52 23.8867 193.123 24.146C192.909 24.2771 192.536 24.6138 192.536 25.3947C192.536 25.8116 192.644 26.3048 193.123 26.6158C193.575 26.9037 194.107 26.8752 194.586 26.8752H195.943V23.9121H194.586ZM201 34H195.943V29.4254H194.612L192.349 34H187L190.089 28.852C189.315 28.672 188.784 28.2531 188.492 27.9164C187.958 27.3175 187.584 26.4339 187.584 25.3153C187.584 23.185 188.836 22.1438 189.716 21.676C190.992 21 192.644 21 194.933 21H201V34Z" fill="#00313D"></path><path fill-rule="evenodd" clip-rule="evenodd" d="M52 8V8.76105H49.6764V15H49V8H52Z" fill="#1B1918"></path><path fill-rule="evenodd" clip-rule="evenodd" d="M59.7502 11.6399H60.7334C61.0504 11.6399 61.5 11.6301 61.809 11.35C62.1765 11.0299 62.2252 10.5103 62.2252 10.1801C62.2252 9.85008 62.1765 9.32825 61.809 9.01037C61.5 8.73105 61.0504 8.72097 60.7334 8.72097H59.7502V11.6399ZM60.683 8C61.2248 8 61.8006 7.99999 62.3176 8.44871C62.9013 8.95037 63 9.6484 63 10.1901C63 10.7296 62.9013 11.4307 62.3176 11.9296C61.8006 12.3783 61.2248 12.3783 60.683 12.3783H59.7502V15H59V8H60.683Z" fill="#1B1918"></path><path fill-rule="evenodd" clip-rule="evenodd" d="M68.0288 8L69.9353 12.9527H70.1084L71.9712 8H73L70.7505 13.6138C70.289 14.7569 70.1297 15.2717 69.7868 15.6182C69.4439 15.9658 69.0905 16 68.8202 16H68.693V15.2259H68.801C69.2924 15.2259 69.4868 14.6442 69.5816 14.3872L69.8381 13.7236H69.6245C69.2816 13.7236 69.1877 13.4017 69.0905 13.1647L67 8H68.0288Z" fill="#1B1918"></path><path fill-rule="evenodd" clip-rule="evenodd" d="M84 8V15H82.982V8.76105H79.0191V15H78V8H84Z" fill="#1B1918"></path><path fill-rule="evenodd" clip-rule="evenodd" d="M94 8V15H93.1514V8.76105H89.849V15H89V8H94Z" fill="#1B1918"></path><path fill-rule="evenodd" clip-rule="evenodd" d="M101.829 12.1492H104.173L103.085 8.68006H102.915L101.829 12.1492ZM103.638 8L106 15H105.085L104.401 12.8701H101.599L100.915 15H100L102.363 8H103.638Z" fill="#1B1918"></path><path fill-rule="evenodd" clip-rule="evenodd" d="M120.038 8V10.9411H121.469L123.799 8H124.977L122.333 11.2822L125 15H123.776L121.469 11.6601H120.038V15H119V8H120.038Z" fill="#1B1918"></path><path fill-rule="evenodd" clip-rule="evenodd" d="M130.383 14.1632C130.818 14.8844 131.457 15.146 132.001 15.146C132.543 15.146 133.18 14.8844 133.616 14.1632C134.044 13.4527 134.1 12.5574 134.1 11.9788C134.1 11.409 134.044 10.5146 133.616 9.80324C133.18 9.082 132.543 8.82038 132.001 8.82038C131.457 8.82038 130.818 9.082 130.383 9.80324C129.957 10.5146 129.9 11.409 129.9 11.9788C129.9 12.5574 129.957 13.4527 130.383 14.1632ZM129.773 9.17012C130.364 8.33873 131.128 8 132.001 8C132.872 8 133.636 8.33873 134.226 9.17012C134.905 10.1312 135 11.2989 135 11.9984C135 12.6978 134.905 13.868 134.226 14.8296C133.636 15.6588 132.872 16 132.001 16C131.128 16 130.364 15.6588 129.773 14.8296C129.095 13.868 129 12.6978 129 11.9984C129 11.2989 129.095 10.1312 129.773 9.17012Z" fill="#1B1918"></path><path fill-rule="evenodd" clip-rule="evenodd" d="M141.735 8L143.499 10.8504L145.265 8H146V15H145.313V9.06104L143.499 12.0102L141.687 9.06104V15H141V8H141.735Z" fill="#1B1918"></path><path fill-rule="evenodd" clip-rule="evenodd" d="M157 8V15H156.321V8.76105H153.679V15H153V8H157Z" fill="#1B1918"></path><path fill-rule="evenodd" clip-rule="evenodd" d="M164.135 12.1492H166.868L165.6 8.68006H165.4L164.135 12.1492ZM166.244 8L169 15H167.933L167.135 12.8701H163.865L163.067 15H162L164.756 8H166.244Z" fill="#1B1918"></path><path fill-rule="evenodd" clip-rule="evenodd" d="M175.019 8V10.9313H178.979V8H180V15H178.979V11.71H175.019V15H174V8H175.019Z" fill="#1B1918"></path><path fill-rule="evenodd" clip-rule="evenodd" d="M186.019 8V12.2018L189.979 9.70135V8H191V15H189.979V10.6011L186.019 13.0993V15H185V8H186.019Z" fill="#1B1918"></path><path fill-rule="evenodd" clip-rule="evenodd" d="M198.223 7C198.246 7.15943 198.305 7.29181 198.427 7.43439C198.585 7.61209 198.75 7.66926 198.977 7.66926C199.205 7.66926 199.37 7.61209 199.528 7.43439C199.65 7.29181 199.709 7.15943 199.731 7H200.336C200.253 7.34637 200.102 7.63153 199.928 7.82797C199.634 8.15797 199.302 8.25026 198.977 8.25026C198.653 8.25026 198.32 8.15797 198.025 7.82797C197.852 7.63153 197.702 7.34637 197.62 7H198.223ZM197.679 8.41159V12.3638L200.321 10.0127V8.41159H201V15H200.321V10.8575L197.679 13.2112V15H197V8.41159H197.679Z" fill="#1B1918"></path></svg>